<?xml version="1.0" encoding="utf-8"?>
<?xml-stylesheet type="text/xsl" href="rss1.xsl"?>
<rss version="2.0" xmlns:atom="http://www.w3.org/2005/Atom" xmlns:content="http://purl.org/rss/1.0/modules/content/" xmlns:dc="http://purl.org/dc/elements/1.1/" xmlns:media="http://search.yahoo.com/mrss/">
<channel>
 <title>Getty</title>
 <link>http://www.gettyimg.com/</link>
 <atom:link href="http://www.gettyimg.com/" rel="self" type="application/rss+xml" />

 
                <item>
                <title><![CDATA[【HD Live Performances】UPSCALE - Girls Aloud - No Good Advice (CDUK) HD]]></title>
                <link><![CDATA[https://sharemania.us/threads/girls-aloud-no-good-advice-cduk-hd.229548/]]></link>
                <description><![CDATA[<article>
<blockquote class="messageText SelectQuoteContainer ugc baseHtml">
<img src="https://i.imgur.com/pGetlId.png" class="bbCodeImage LbImage" alt="[​IMG]" data-url="https://i.imgur.com/pGetlId.png" style=""><br>
<img src="https://i.imgur.com/V6vgceJ.png" class="bbCodeImage LbImage" alt="[​IMG]" data-url="https://i.imgur.com/V6vgceJ.png" style=""><br>
<img src="https://i.imgur.com/FoTjGk5.png" class="bbCodeImage LbImage" alt="[​IMG]" data-url="https://i.imgur.com/FoTjGk5.png" style=""><br>
<img src="https://i.imgur.com/hGPRm3i.png" class="bbCodeImage LbImage" alt="[​IMG]" data-url="https://i.imgur.com/hGPRm3i.png" style=""><br>
<img src="https://i.imgur.com/Isb0keG.png" class="bbCodeImage LbImage" alt="[​IMG]" data-url="https://i.imgur.com/Isb0keG.png" style=""><br>
<br>
<div class="ToggleTriggerAnchor bbCodeSpoilerContainer">
<button type="button" class="button bbCodeSpoilerButton ToggleTrigger Tooltip JsOnly" data-target="> .SpoilerTarget"><span>Spoiler: <span class="SpoilerTitle">MediaInfo</span></span></button>
<div class="SpoilerTarget bbCodeSpoilerText">Format : MPEG-4<br>
Format profile : Base Media<br>
Codec ID : isom (isom/iso2/mp41)<br>
File size : 805 MiB<br>
Duration : 3 min 7 s<br>
Overall bit rate : 36.1 Mb/s<br>
minor_version : 512<br>
major_brand : isom<br>
compatible_brands : isomiso2avc1mp41<br>
encoder : Lavf59.34.101<br>
Video<br>
ID : 1<br>
Format : HEVC<br>
Format/Info : High Efficiency Video Coding<br>
Format profile : Main@L5@High<br>
Codec ID : hev1<br>
Codec ID/Info : High Efficiency Video Coding<br>
Duration : 3 min 7 s<br>
Bit rate : 35.8 Mb/s<br>
Width : 1 440 pixels<br>
Height : 1 152 pixels<br>
Display aspect ratio : 4:3<br>
Frame rate mode : Constant<br>
Frame rate : 25.000 FPS<br>
Color space : YUV<br>
Chroma subsampling : 4:2:0<br>
Bit depth : 8 bits<br>
Scan type : Progressive<br>
Bits/(Pixel*Frame) : 0.864<br>
Stream size : 800 MiB (99%)<br>
Color range : Limited<br>
Matrix coefficients : BT.470 System B/G<br>
Codec configuration box : hvcC<br>
Audio<br>
ID : 2<br>
Format : AAC LC<br>
Format/Info : Advanced Audio Codec Low Complexity<br>
Codec ID : mp4a-40-2<br>
Duration : 3 min 7 s<br>
Source duration : 3 min 7 s<br>
Bit rate mode : Constant<br>
Bit rate : 265 kb/s<br>
Channel(s) : 2 channels<br>
Channel layout : L R<br>
Sampling rate : 48.0 kHz<br>
Frame rate : 46.875 FPS (1024 SPF)<br>
Compression mode : Lossy<br>
Stream size : 5.83 MiB (1%)<br>
Source stream size : 5.83 MiB (1%)<br>
Default : Yes<br>
Alternate group : 1</div>
</div><br>
Wasn't overly happy with my Love machine performance upscale when viewing it on my TV, compression made it too clean for my tastes, so I've switched to HEVC for this one and a larger size. Again, I'm no expert with upscaling just doing these for fun, I think this one turned out better though.<br>
<br>
Enjoy!<br>
<br>
<div class="bbCodeBlock bbCodeVfcHH HiddenContent">
<div class="attribution type">Hidden Content:</div>
<blockquote>You must reply before you can see the hidden data contained here.</blockquote>
</div>
<div class="messageTextEndMarker">&nbsp;</div>
</blockquote>
</article>]]></description>
                <author><![CDATA[Johnboy]]></author>
                </item>

                </channel></rss>